<svg width="30" height="28" viewBox="0 0 30 28" fill="none" xmlns="http://www.w3.org/2000/svg">
<rect x="0.755854" y="13.593" width="9.11105" height="13.8898" stroke="#F8C301" stroke-width="0.813954"/>
<rect x="3.65723" y="15.3916" width="3.30834" height="3.30834" fill="#60C1F8"/>
<rect x="3.65723" y="22.1919" width="3.30834" height="3.30834" fill="#60C1F8"/>
<mask id="path-4-inside-1_156_727" fill="white">
<path fill-rule="evenodd" clip-rule="evenodd" d="M15.3385 3.80731C15.141 3.59678 14.8067 3.59678 14.6092 3.80731L7.48694 11.3988C7.18738 11.7181 7.41377 12.2409 7.85158 12.2409H9.27615V27.8374H20.6715V12.2409H22.0961C22.5339 12.2409 22.7603 11.7181 22.4607 11.3988L15.3385 3.80731Z"/>
</mask>
<path fill-rule="evenodd" clip-rule="evenodd" d="M15.3385 3.80731C15.141 3.59678 14.8067 3.59678 14.6092 3.80731L7.48694 11.3988C7.18738 11.7181 7.41377 12.2409 7.85158 12.2409H9.27615V27.8374H20.6715V12.2409H22.0961C22.5339 12.2409 22.7603 11.7181 22.4607 11.3988L15.3385 3.80731Z" fill="white"/>
<path d="M14.6092 3.80731L15.2028 4.36422V4.36422L14.6092 3.80731ZM15.3385 3.80731L14.7449 4.36422V4.36422L15.3385 3.80731ZM7.48694 11.3988L6.89333 10.8419H6.89333L7.48694 11.3988ZM9.27615 12.2409H10.0901V11.4269H9.27615V12.2409ZM9.27615 27.8374H8.46219V28.6513H9.27615V27.8374ZM20.6715 27.8374V28.6513H21.4855V27.8374H20.6715ZM20.6715 12.2409V11.4269H19.8576V12.2409H20.6715ZM22.4607 11.3988L21.8671 11.9557L21.8671 11.9557L22.4607 11.3988ZM15.2028 4.36422C15.0788 4.49642 14.8689 4.49642 14.7449 4.36422L15.9321 3.25039C15.413 2.69715 14.5346 2.69715 14.0156 3.25039L15.2028 4.36422ZM8.08054 11.9557L15.2028 4.36422L14.0156 3.25039L6.89333 10.8419L8.08054 11.9557ZM7.85158 11.4269C8.12648 11.4269 8.26863 11.7552 8.08054 11.9557L6.89333 10.8419C6.10614 11.6809 6.70106 13.0548 7.85158 13.0548V11.4269ZM9.27615 11.4269H7.85158V13.0548H9.27615V11.4269ZM10.0901 27.8374V12.2409H8.46219V27.8374H10.0901ZM20.6715 27.0234H9.27615V28.6513H20.6715V27.0234ZM19.8576 12.2409V27.8374H21.4855V12.2409H19.8576ZM22.0961 11.4269H20.6715V13.0548H22.0961V11.4269ZM21.8671 11.9557C21.6791 11.7552 21.8212 11.4269 22.0961 11.4269V13.0548C23.2466 13.0548 23.8415 11.6809 23.0543 10.8419L21.8671 11.9557ZM14.7449 4.36422L21.8671 11.9557L23.0543 10.8419L15.9321 3.25039L14.7449 4.36422Z" fill="#F8C301" mask="url(#path-4-inside-1_156_727)"/>
<circle cx="15.0001" cy="11.5581" r="2.03488" stroke="#60C1F8" stroke-width="0.813954"/>
<rect x="20.2908" y="13.5405" width="9.11105" height="13.8898" stroke="#F8C301" stroke-width="0.813954"/>
<rect x="23.1921" y="15.3391" width="3.30834" height="3.30834" fill="#60C1F8"/>
<rect x="23.1921" y="22.1396" width="3.30834" height="3.30834" fill="#60C1F8"/>
<rect x="12.2443" y="18.5698" width="5.51163" height="7.95349" stroke="#60C1F8"/>
<rect x="12.1512" y="16.0349" width="5.69767" height="0.813953" stroke="#60C1F8" stroke-width="0.813953"/>
<path d="M16.9956 0.806129L15.0657 1.36323V0.249026L16.9956 0.806129Z" fill="#FFBF00"/>
<rect x="14.79" y="0.162842" width="0.367593" height="3.49213" rx="0.183796" fill="#0C101A"/>
</svg>
